<svg height="933.333" viewBox="0 0 700 700" width="933.333" xmlns="http://www.w3.org/2000/svg"><path d="m326.7 142.7c-12.4 20.8-23 38.3-23.4 38.9-1.1 1.4-3.4 5.3-5.1 8.6-1.4 2.9-3.1 3.4-6 1.9-8.2-4.5-26.8-8.3-40.3-8.3-26.6.2-50.9 10.2-69.4 28.8-18.4 18.4-27.6 40.8-27.6 66.9 0 18.3 5.6 36 16.2 51.7 4.8 7 17.9 20.5 22.8 23.4 1.9 1.1 3 2.5 2.8 3.4-.3 1.2-19.6 33.5-82.8 138.5-1.3 2.3-3 5-3.7 6-.7 1.1-1.5 2.8-1.8 3.7-.4 1-1 1.8-1.5 1.8s-.9.4-.9.9-7.2 12.8-15.9 27.3c-8.8 14.5-15.8 26.5-15.6 26.7.5.5 550.5.5 550.9 0 .2-.2-12.9-22.5-29.2-49.4-16.2-27-30.2-50.4-31.2-52-.9-1.7-6.3-10.7-12-20-5.7-9.4-11.1-18.4-12-20-1-1.7-17.6-29.3-37-61.5s-36-59.9-37-61.5c-1-1.7-10.4-17.4-21-35s-20-33.2-20.9-34.8c-10.5-18.1-74.6-123.7-75.1-123.7-.4 0-10.9 17-23.3 37.7zm33.3 19.8c4 6.6 8.2 13.6 9.4 15.7 1.2 2 12.5 20.8 25.1 41.7 12.7 21 24.1 40 25.5 42.4 2.5 4.2 76.2 126.8 78.1 129.7 8 12.7 89.6 149.6 89.3 149.9-.5.5-474.3.5-474.8 0-.4-.4 6-11.3 54.4-91.6 18.4-30.6 34.6-57.6 36-59.9 1.4-2.4 5.1-8.6 8.3-13.8l5.7-9.5 3.9 1.4c12.4 4.4 31.1 5.9 45.6 3.8 39.8-5.7 70.8-33.4 80.6-71.8 2.4-9.7 2.7-12.5 2.4-23.5-.2-6.9-.6-13.6-.9-15s-.8-3.8-1.1-5.3c-1.3-7.1-8.3-22.6-13.8-30.7-4.2-6.1-6.3-8.4-12.9-14.8-3.2-3.1-5.8-5.9-5.8-6.3 0-.5 2.5-5 5.6-10.1s6.5-10.7 7.4-12.3c1.7-3 18-30 20.7-34.4l1.5-2.3 1.2 2.3c.7 1.3 4.6 7.8 8.6 14.4z"/></svg>