<svg xmlns="http://www.w3.org/2000/svg" width="24" height="24" viewBox="0 0 24 24">
  <path d="M20.397 4.756c.444.409.8 1.096.931 1.793.124.665.031 1.228-.264 1.547l-3.81 4.114c-.374.407-1.024.464-1.501-.027a.995.995 0 0 0-1.412.055.998.998 0 0 0 .053 1.413c1.142 1.131 3.093 1.229 4.329-.082l3.807-4.117c.741-.797 1.012-1.96.764-3.273-.211-1.114-.784-2.195-1.538-2.89l-1.821-1.687C19.182.904 18.061.415 16.934.29c-1.328-.146-2.468.213-3.205 1.015L9.916 5.418c-1.213 1.334-.963 3.27.253 4.322a.998.998 0 0 0 1.413-.057.995.995 0 0 0-.055-1.411c-.527-.437-.517-1.091-.141-1.494l3.809-4.115c.293-.319.85-.456 1.521-.382.704.076 1.417.378 1.86.788l1.821 1.687zM3.601 19.245c-.444-.41-.8-1.097-.931-1.794-.124-.664-.031-1.228.264-1.547l3.81-4.114c.374-.407 1.024-.464 1.501.027a.996.996 0 0 0 1.412-.055.997.997 0 0 0-.053-1.413c-1.142-1.131-3.093-1.23-4.329.082l-3.807 4.117c-.741.796-1.012 1.96-.764 3.273.211 1.114.784 2.195 1.538 2.891l1.821 1.686c.753.699 1.874 1.188 3.001 1.312 1.328.146 2.468-.212 3.205-1.014l3.812-4.114c1.213-1.334.963-3.27-.253-4.322a.997.997 0 0 0-1.413.058.995.995 0 0 0 .055 1.411c.527.436.518 1.091.142 1.494l-3.809 4.115c-.293.319-.85.455-1.522.382-.704-.077-1.417-.377-1.86-.789l-1.82-1.686z"/>
  <path d="M16.416 7.228a1 1 0 0 0-1.413.055l-7.475 8.07a1 1 0 0 0 1.468 1.36l7.475-8.07c.375-.406.35-1.04-.055-1.415z"/>
</svg>
