<?xml version="1.0" encoding="UTF-8"?>
<svg width="300px" height="176px" viewBox="0 0 300 176" version="1.1" xmlns="http://www.w3.org/2000/svg" xmlns:xlink="http://www.w3.org/1999/xlink">
    <!-- Generator: Sketch 55.1 (78136) - https://sketchapp.com -->
    <title>link</title>
    <desc>Created with Sketch.</desc>
    <g id="Mocks" stroke="none" stroke-width="1" fill="none" fill-rule="evenodd">
        <g id="Artboard" transform="translate(-644.000000, -677.000000)" fill="#FFFFFF" fill-rule="nonzero">
            <path d="M700.250072,852.49992 C669.125032,852.49992 644,827.374888 644,796.249848 L644,733.749768 C644,702.624728 669.125032,677.499696 700.250072,677.499696 L787.750184,677.499696 C818.875224,677.499696 844.000256,702.624728 844.000256,733.749768 L844.000256,777.499824 C844.000256,784.374833 838.375249,789.99984 831.50024,789.99984 L819.000224,789.99984 C812.125215,789.99984 806.500208,784.374833 806.500208,777.499824 L806.500208,733.749768 C806.500208,723.374754 798.125198,714.999744 787.750184,714.999744 L700.250072,714.999744 C689.875059,714.999744 681.500048,723.374754 681.500048,733.749768 L681.500048,796.249848 C681.500048,806.624861 689.875059,814.999872 700.250072,814.999872 L720.750098,814.999872 C723.375102,814.999872 725.875105,816.749874 726.625106,819.249877 L735.000117,844.249909 C735.250117,844.99991 735.375117,845.624911 735.375117,846.249912 C735.375117,849.624916 732.625114,852.49992 729.125109,852.49992 L700.250072,852.49992 Z M800.2502,852.49992 C769.12516,852.49992 744.000128,827.374888 744.000128,796.249848 L744.000128,752.499792 C744.000128,745.624783 749.625135,739.999776 756.500144,739.999776 L769.00016,739.999776 C775.875169,739.999776 781.500176,745.624783 781.500176,752.499792 L781.500176,796.249848 C781.500176,806.624861 789.875187,814.999872 800.2502,814.999872 L887.750312,814.999872 C898.125326,814.999872 906.500336,806.624861 906.500336,796.249848 L906.500336,733.749768 C906.500336,723.374754 898.125326,714.999744 887.750312,714.999744 L867.250286,714.999744 C864.625283,714.999744 862.12528,713.249741 861.375279,710.749738 L853.000268,685.749706 C852.750268,684.999696 852.625267,684.374704 852.625267,683.749704 C852.625267,680.374699 855.375271,677.499696 858.875275,677.499696 L887.750312,677.499696 C918.875352,677.499696 944.000384,702.624728 944.000384,733.749768 L944.000384,796.249848 C944.000384,827.374888 918.875352,852.49992 887.750312,852.49992 L800.2502,852.49992 Z" id="î‘"></path>
        </g>
    </g>
</svg>