<?xml version="1.0" encoding="UTF-8"?>
<svg width="300px" height="300px" viewBox="0 0 300 300" version="1.1" xmlns="http://www.w3.org/2000/svg" xmlns:xlink="http://www.w3.org/1999/xlink">
    <!-- Generator: Sketch 55.1 (78136) - https://sketchapp.com -->
    <title>navigation-circle-right</title>
    <desc>Created with Sketch.</desc>
    <g id="Mocks" stroke="none" stroke-width="1" fill="none" fill-rule="evenodd">
        <g id="Artboard" transform="translate(-1793.000000, -615.000000)" fill="#FFFFFF" fill-rule="nonzero">
            <path d="M1943.00019,915 C1860.25009,915 1793,847.749914 1793,764.999808 C1793,682.249702 1860.25009,614.999616 1943.00019,614.999616 C2025.7503,614.999616 2093.00038,682.249702 2093.00038,764.999808 C2093.00038,847.749914 2025.7503,915 1943.00019,915 Z M1943.00019,877.499952 C2005.00027,877.499952 2055.50034,826.999887 2055.50034,764.999808 C2055.50034,702.999728 2005.00027,652.499664 1943.00019,652.499664 C1881.00011,652.499664 1830.50005,702.999728 1830.50005,764.999808 C1830.50005,826.999887 1881.00011,877.499952 1943.00019,877.499952 Z M1950.1252,825.124885 C1947.8752,826.624887 1945.3752,827.374888 1943.00019,827.374888 C1936.50018,827.374888 1930.50018,822.249881 1930.50018,814.874872 L1930.50018,789.99984 L1880.50011,789.99984 C1873.6251,789.99984 1868.0001,784.374833 1868.0001,777.499824 L1868.0001,752.499792 C1868.0001,745.624783 1873.6251,739.999776 1880.50011,739.999776 L1930.50018,739.999776 L1930.50018,715.124744 C1930.50018,707.749734 1936.50018,702.624728 1943.00019,702.624728 C1945.3752,702.624728 1947.8752,703.374729 1950.1252,704.874731 L2022.00029,754.749795 C2025.5003,757.249798 2027.3753,761.124803 2027.3753,764.999808 C2027.3753,768.874813 2025.5003,772.749818 2022.00029,775.249821 L1950.1252,825.124885 Z" id="îˆ"></path>
        </g>
    </g>
</svg>